<svg id="visual" viewBox="0 0 900 600" width="900" height="600" xmlns="http://www.w3.org/2000/svg" xmlns:xlink="http://www.w3.org/1999/xlink" version="1.1"><rect x="0" y="0" width="900" height="600" fill="#1C4E80"></rect><path d="M0 384L15 407.3C30 430.7 60 477.3 90 477C120 476.7 150 429.3 180 409.7C210 390 240 398 270 418.8C300 439.7 330 473.3 360 482.7C390 492 420 477 450 470.2C480 463.3 510 464.7 540 452.3C570 440 600 414 630 413.3C660 412.7 690 437.3 720 456.2C750 475 780 488 810 476.5C840 465 870 429 885 411L900 393L900 601L885 601C870 601 840 601 810 601C780 601 750 601 720 601C690 601 660 601 630 601C600 601 570 601 540 601C510 601 480 601 450 601C420 601 390 601 360 601C330 601 300 601 270 601C240 601 210 601 180 601C150 601 120 601 90 601C60 601 30 601 15 601L0 601Z" fill="#E4EAF2" stroke-linecap="round" stroke-linejoin="miter"></path></svg>